<?xml version="1.0" standalone="no"?>
<!DOCTYPE svg PUBLIC "-//W3C//DTD SVG 20010904//EN"
 "http://www.w3.org/TR/2001/REC-SVG-20010904/DTD/svg10.dtd">
<svg version="1.0" xmlns="http://www.w3.org/2000/svg"
 width="1000.000000pt" height="1000.000000pt" viewBox="0 0 1000.000000 1000.000000"
 preserveAspectRatio="xMidYMid meet">
<metadata>
Created by potrace 1.14, written by Peter Selinger 2001-2017
</metadata>
<g transform="translate(0.000000,1000.000000) scale(0.100000,-0.100000)"
fill="#000000" stroke="none">
<path d="M7367 9570 c-95 -24 -150 -72 -242 -214 -63 -96 -133 -232 -213 -410
-36 -82 -67 -136 -83 -148 -37 -28 -90 -37 -209 -38 -450 -1 -1188 -141 -1810
-342 -162 -52 -416 -148 -526 -198 -47 -22 -95 -40 -106 -40 -30 0 -54 16
-162 109 -91 78 -124 104 -246 193 -72 52 -225 142 -272 160 -99 37 -214 14
-277 -58 -51 -58 -75 -110 -105 -230 -47 -192 -65 -384 -66 -697 0 -136 -3
-176 -16 -203 -9 -19 -62 -75 -118 -123 -426 -372 -762 -837 -956 -1325 -154
-389 -221 -732 -220 -1146 0 -183 18 -424 40 -537 5 -26 19 -91 31 -143 11
-52 25 -113 29 -135 16 -87 74 -277 126 -411 148 -388 337 -680 628 -970 241
-240 511 -429 820 -574 58 -27 106 -52 106 -55 0 -2 -15 -12 -32 -21 -57 -29
-181 -140 -243 -218 -79 -99 -123 -173 -180 -303 -72 -165 -96 -264 -102 -423
-7 -166 12 -257 82 -395 95 -190 217 -312 398 -399 l108 -51 -5 -45 c-3 -25
-8 -75 -12 -112 l-6 -68 110 0 111 0 6 58 c3 31 8 72 11 90 l5 33 52 -8 c101
-15 494 -8 602 10 194 34 476 121 665 207 62 27 105 40 158 45 l72 6 0 -56 c0
-49 4 -60 29 -86 38 -37 65 -37 103 2 l31 30 -6 89 -6 88 87 53 c161 97 273
238 308 384 23 101 15 343 -15 436 -25 79 -102 201 -176 279 l-54 56 162 12
c323 24 815 93 1062 148 107 23 189 42 258 59 34 8 112 26 172 41 248 59 628
185 965 319 267 106 458 196 708 331 34 19 62 32 62 28 0 -3 -15 -24 -34 -46
-44 -51 -99 -157 -122 -233 -13 -44 -18 -92 -17 -180 1 -200 45 -314 186 -480
107 -127 231 -205 351 -222 23 -3 61 -8 85 -12 l43 -6 37 -95 c20 -52 42 -105
49 -118 19 -33 59 -46 94 -31 57 24 61 63 17 179 -17 45 -30 83 -28 84 2 2 42
13 89 25 47 12 119 38 160 59 l75 37 3 132 3 132 -31 -9 c-17 -5 -46 -22 -65
-39 -86 -75 -248 -125 -405 -125 -129 1 -196 30 -281 123 -112 123 -143 184
-159 307 -11 88 1 177 35 249 71 149 184 204 392 191 l104 -7 34 34 c61 61 40
139 -47 177 -58 25 -196 28 -296 7 -34 -8 -61 -10 -60 -6 2 4 48 37 103 75
214 145 399 295 588 475 l87 84 0 154 0 154 -77 -84 c-189 -205 -420 -406
-661 -573 -46 -32 -85 -56 -88 -54 -2 3 -27 83 -54 179 -58 199 -97 328 -180
589 -33 102 -77 246 -99 320 -37 124 -44 138 -84 177 -47 44 -121 73 -188 73
-20 0 -74 -7 -120 -16 -151 -28 -239 -64 -382 -156 -142 -92 -224 -127 -417
-179 -266 -71 -289 -79 -310 -106 -30 -38 -25 -80 30 -273 28 -96 55 -191 60
-210 58 -228 158 -464 213 -504 26 -19 32 -19 130 -7 186 23 270 41 407 87
177 60 254 96 375 176 55 36 115 73 133 82 36 18 201 76 218 76 6 0 34 -84 64
-187 29 -104 55 -193 57 -200 14 -37 -472 -288 -861 -443 -822 -327 -1781
-532 -2647 -566 l-176 -6 -7 98 c-10 137 -39 390 -81 709 -20 149 -47 350 -60
448 -13 101 -30 187 -38 200 -26 40 -68 76 -115 99 -43 21 -60 23 -202 23
-178 -1 -239 -14 -419 -91 -146 -63 -231 -81 -486 -104 -315 -29 -307 -21
-276 -303 12 -106 29 -257 37 -337 17 -156 61 -352 91 -403 31 -53 52 -57 264
-58 164 0 216 4 339 25 173 31 224 45 344 98 136 59 188 76 279 88 45 6 89 13
98 16 11 3 19 -3 23 -19 7 -31 46 -406 46 -451 l0 -34 -97 4 c-1032 51 -1811
350 -2364 907 -508 511 -791 1296 -766 2127 17 570 181 1063 515 1550 164 241
431 534 670 737 67 58 127 114 133 125 8 14 9 57 5 127 -24 391 -9 629 55 845
23 79 34 96 58 96 22 0 263 -154 369 -237 48 -37 142 -120 209 -185 142 -138
145 -139 263 -82 94 45 355 155 463 196 666 247 1335 377 2031 395 234 6 250
7 271 27 12 12 50 93 85 181 110 282 301 625 348 625 33 0 153 -139 248 -285
61 -96 176 -328 215 -434 45 -125 123 -217 219 -258 19 -9 89 -31 155 -50 416
-118 767 -281 1066 -495 217 -155 445 -376 598 -581 l66 -88 3 188 3 188 -143
140 c-201 198 -429 371 -682 520 -202 118 -533 261 -776 335 -232 70 -228 67
-341 300 -106 219 -184 355 -279 482 -93 126 -172 207 -226 233 -45 22 -132
28 -187 15z m1183 -5432 c12 -13 30 -32 40 -43 28 -29 38 -166 15 -185 -13
-11 -23 -11 -48 -2 -21 8 -35 8 -41 2 -14 -14 -49 -13 -64 2 -7 7 -12 29 -12
49 0 20 -7 42 -15 49 -25 21 -18 57 15 82 17 12 30 27 30 33 0 17 22 35 42 35
10 0 27 -10 38 -22z m-232 -114 c4 -41 -19 -61 -53 -46 -46 21 -26 86 25 80
20 -2 26 -9 28 -34z m50 -126 c21 -21 14 -57 -13 -70 -45 -20 -78 38 -37 68
21 17 35 17 50 2z m276 -70 c8 -14 7 -21 -6 -34 -22 -22 -58 -10 -58 21 0 37
43 46 64 13z m-138 -12 c27 -20 7 -51 -32 -51 -23 0 -30 5 -32 24 -6 38 29 52
64 27z m-3606 -536 c4 -8 14 -30 23 -48 20 -40 23 -135 5 -150 -7 -5 -29 -12
-48 -15 -19 -3 -47 -9 -63 -12 -42 -11 -60 10 -52 60 4 31 2 45 -10 55 -34 28
-1 92 39 77 8 -3 23 8 35 24 24 32 58 36 71 9z m-290 -55 c19 -23 4 -65 -24
-65 -37 0 -52 25 -32 55 19 28 38 32 56 10z m48 -137 c35 -35 -7 -90 -47 -62
-34 24 -22 74 19 74 9 0 21 -5 28 -12z m150 -89 c15 -24 8 -55 -14 -63 -24 -9
-54 12 -54 37 0 46 45 63 68 26z m158 -11 c7 -22 -19 -52 -40 -45 -17 6 -29
34 -23 51 10 24 54 21 63 -6z m-916 -1121 c247 -65 673 -137 813 -137 l41 0
-58 -57 c-101 -99 -120 -183 -55 -237 55 -47 117 -30 182 48 45 54 153 121
221 136 149 33 331 -77 421 -254 l40 -79 0 -146 c0 -139 -1 -149 -28 -203 -74
-151 -360 -315 -509 -292 -25 4 -44 -2 -81 -25 -26 -17 -49 -31 -52 -31 -2 0
-32 -13 -67 -29 -80 -37 -287 -106 -398 -132 -193 -46 -419 -60 -636 -38 -296
29 -472 119 -594 306 -126 191 -143 370 -58 613 64 182 170 348 289 453 57 51
197 127 233 127 11 1 32 7 46 15 31 19 37 18 250 -38z"/>
<path d="M6791 6553 c-52 -27 -74 -64 -78 -130 -6 -87 38 -146 119 -159 73
-12 154 54 165 134 7 49 -24 123 -61 147 -39 26 -105 29 -145 8z"/>
<path d="M6220 6139 c-291 -17 -611 -119 -876 -280 -115 -69 -188 -131 -284
-242 -145 -166 -217 -345 -227 -562 -14 -334 100 -609 322 -778 303 -229 750
-259 1349 -91 359 101 525 186 710 364 184 177 261 332 269 545 8 183 -20 317
-97 480 -161 337 -477 533 -907 560 -52 3 -105 7 -119 9 -14 1 -77 -1 -140 -5z
m375 -194 c127 -22 188 -41 280 -85 267 -130 428 -396 429 -710 0 -100 -4
-126 -27 -195 -81 -235 -317 -429 -667 -547 -142 -48 -405 -113 -525 -130
-141 -19 -394 -17 -490 5 -120 28 -191 56 -269 107 -92 60 -168 144 -215 239
-63 125 -75 190 -76 391 0 165 2 179 27 248 40 109 84 178 173 268 196 199
537 365 850 415 142 22 366 20 510 -6z"/>
<path d="M6507 5620 c-92 -24 -170 -89 -208 -174 -26 -60 -36 -186 -20 -269
24 -130 123 -266 228 -314 142 -65 322 -1 395 141 83 162 36 432 -96 543 -75
63 -208 96 -299 73z m124 -170 c108 -30 183 -219 133 -338 -47 -114 -162 -142
-241 -60 -56 58 -77 112 -81 207 -4 106 13 145 78 179 50 25 60 26 111 12z"/>
<path d="M5587 5410 c-121 -31 -209 -119 -242 -245 -42 -162 9 -331 135 -449
85 -79 183 -109 282 -86 151 35 242 151 255 325 17 242 -131 450 -329 461 -35
2 -80 -1 -101 -6z m139 -176 c91 -44 153 -236 109 -342 -47 -111 -148 -127
-241 -37 -93 90 -110 249 -37 336 48 56 108 72 169 43z"/>
<path d="M4899 6117 c-64 -42 -84 -118 -53 -197 46 -114 203 -112 258 3 63
134 -85 275 -205 194z"/>
</g>
</svg>
